<svg xmlns="http://www.w3.org/2000/svg" xmlns:xlink="http://www.w3.org/1999/xlink" viewBox="0 0 510.95 685.24"><defs><style>.cls-1,.cls-15,.cls-17,.cls-19,.cls-4{fill:none;}.cls-2{isolation:isolate;}.cls-3{fill:#1d1c1a;}.cls-12,.cls-4,.cls-5,.cls-6,.cls-9{stroke:#000;}.cls-12,.cls-15,.cls-17,.cls-19,.cls-4,.cls-5,.cls-6{stroke-linecap:round;stroke-linejoin:round;}.cls-12,.cls-17,.cls-4,.cls-5,.cls-6{stroke-width:12.85px;}.cls-6{fill:#f9fafb;}.cls-7{fill:#1873b6;}.cls-12,.cls-8{fill:#f9d6ce;}.cls-9{stroke-miterlimit:10;stroke-width:0.8px;}.cls-10{clip-path:url(#clip-path);}.cls-11{fill:#2f398c;}.cls-13{fill:#ececec;}.cls-14{opacity:0.3;}.cls-14,.cls-16{mix-blend-mode:multiply;}.cls-15{stroke:#491213;stroke-width:6.42px;}.cls-16{fill:#ee6042;opacity:0.6;}.cls-17{stroke:#3c3c3b;opacity:0.8;}.cls-18,.cls-19{opacity:0.5;}.cls-19{stroke:#9b1f24;stroke-width:8.03px;}</style><clipPath id="clip-path"><circle id="SVGID" class="cls-1" cx="305.25" cy="322.27" r="15.95"/></clipPath></defs><title>biden</title><g class="cls-2"><g id="Capa_2" data-name="Capa 2"><g id="Contenido"><path d="M320.48,373.54c20,0,35.67,9.53,44.73,25.21,15.18,26.3,6.12,59.95-35.74,84.11-16.88,9.75-32.43,14.1-46,14.1-20,0-35.67-9.52-44.73-25.21-15.18-26.29-6.12-59.94,35.73-84.11,16.89-9.75,32.43-14.1,46-14.1m0-12.85c-16.59,0-34.22,5.33-52.4,15.82-22.34,12.9-37.85,29.44-44.84,47.82a61.86,61.86,0,0,0,4.4,53.84c11.61,20.11,32,31.64,55.86,31.64,16.58,0,34.21-5.32,52.4-15.82,22.34-12.9,37.85-29.44,44.84-47.82a61.87,61.87,0,0,0-4.41-53.84c-11.6-20.11-32-31.64-55.85-31.64Z"/><path class="cls-3" d="M347.31,597.11,326.79,609c-5.77,3.33-9.11,10.41-8.56,17.14h0c-12.39,7.15-18.51,24.07-13.68,37.8s18.81,19.05,31.2,11.9l22.85-13.19c12.39-7.16,18.51-24.08,13.67-37.81h0l-7.4-21C362.15,596.09,354.29,593.09,347.31,597.11Z"/><path class="cls-4" d="M365.16,603.65l7.39,21c4.84,13.73-1.28,30.65-13.67,37.8L336,675.64c-12.39,7.15-26.36,1.82-31.19-11.9s1.28-30.65,13.67-37.81h0c-.55-6.72,2.8-13.8,8.56-17.13L347.59,597C354.57,592.92,362.43,595.92,365.16,603.65Z"/><line class="cls-4" x1="318.51" y1="625.93" x2="332.58" y2="617.81"/><path class="cls-5" d="M274.6,501.23c-4.83-13.72,1.29-30.65,13.68-37.8s26.35-1.83,31.19,11.9l43.73,119.6-44.87,25.9Z"/><path class="cls-3" d="M419.78,555.27l20.53-11.85c5.76-3.33,13.57-2.68,19.12,1.15h0c12.39-7.15,30.1-4,39.57,7.07s7.1,25.81-5.29,33l-22.85,13.19c-12.39,7.16-30.11,4-39.58-7.06h0l-14.47-16.9C411.48,567.61,412.81,559.3,419.78,555.27Z"/><path class="cls-4" d="M416.52,574,431,590.89c9.47,11.06,27.19,14.22,39.58,7.07l22.85-13.2c12.39-7.15,14.76-21.91,5.29-33s-27.19-14.22-39.57-7.06h0c-5.55-3.84-13.36-4.48-19.12-1.16L419.5,555.43C412.53,559.46,411.19,567.77,416.52,574Z"/><line class="cls-4" x1="459.15" y1="544.74" x2="445.07" y2="552.86"/><path class="cls-5" d="M373.1,444.36c-9.47-11.05-27.18-14.21-39.57-7.06s-14.76,21.91-5.29,33L410,567.94,454.82,542Z"/><ellipse cx="301.99" cy="435.25" rx="73" ry="54.97" transform="translate(-177.17 209.31) rotate(-30)"/><path class="cls-6" d="M213.18,281.43c-63.3,36.55-65.89,59.66,6.66,189L228.28,485c12.27-1.54,44.68-16.21,81-37.17s65.22-41.7,72.69-51.56l-8.43-14.61C297.79,254.19,276.48,244.89,213.18,281.43Z"/><path class="cls-7" d="M262.74,325.22l-7.19-12.45a13.84,13.84,0,0,0-18.9-5.07l-12.46,7.2a13.83,13.83,0,0,0-5.06,18.89l7.19,12.46a13.82,13.82,0,0,0,7,6,16.28,16.28,0,0,1,8.82,8l29,59.22,32.58-18.81-36.79-54.73a16.28,16.28,0,0,1-2.49-11.61A13.76,13.76,0,0,0,262.74,325.22Z"/><path class="cls-5" d="M255,263.62l8.37,10.48a64.35,64.35,0,0,1,13.13,29.21c3.79,21.85,7,51.8,5.61,66.67l-2.47,26.56L255.41,385.4c-13.58-6.24-37.91-24-54.94-38.19a64.39,64.39,0,0,1-18.73-26l-4.89-12.49c-23.4,27.92-11.07,65.32,43,161.69l22.87,39.62c12.28-1.54,44.69-16.21,81-37.17s65.22-41.7,72.69-51.57L373.53,381.7C317.1,286.7,290.88,257.31,255,263.62Z"/><path d="M188.32,487.27a23,23,0,0,1-9.2-1.92L131.34,464.6a48.3,48.3,0,0,1-25-63.47l20.76-47.78a23.1,23.1,0,1,1,42.38,18.41L148.7,419.54a2,2,0,0,0,1.05,2.67L179.16,435A14,14,0,0,1,202,445.54a23.11,23.11,0,0,1-13.7,41.73Z"/><path d="M148.27,345.87a16.69,16.69,0,0,1,15.29,23.33L142.81,417a8.46,8.46,0,0,0,4.38,11.12l33.87,14.72a7.59,7.59,0,0,1,7-4.57,7.72,7.72,0,0,1,3,.63,7.59,7.59,0,0,1,3.93,10,16.68,16.68,0,0,1-13.29,30.6L133.9,458.71a41.86,41.86,0,0,1-21.69-55L133,355.91a16.68,16.68,0,0,1,15.31-10m0-12.85a29.54,29.54,0,0,0-27.1,17.77l-20.75,47.78a54.7,54.7,0,0,0,28.36,71.92l47.78,20.76a29.54,29.54,0,0,0,31.57-49,19.61,19.61,0,0,0-1.11-3.9,20.43,20.43,0,0,0-28.46-10.62l-22.22-9.65,19-43.75A29.54,29.54,0,0,0,148.27,333Z"/><path class="cls-8" d="M191,438.88a7.59,7.59,0,0,0-10,3.94h0L147.19,428.1A8.46,8.46,0,0,1,142.81,417l20.75-47.78A16.68,16.68,0,0,0,133,355.91l-20.75,47.78a41.86,41.86,0,0,0,21.69,55l47.78,20.75A16.68,16.68,0,0,0,195,448.86,7.59,7.59,0,0,0,191,438.88Z"/><path class="cls-9" d="M154.91,347.26A16.68,16.68,0,0,0,133,355.91l-20.75,47.78a41.86,41.86,0,0,0,21.69,55l34,14.77,13.88-32a7.75,7.75,0,0,0-.72,1.3L147.19,428.1A8.46,8.46,0,0,1,142.81,417l20.75-47.78A16.67,16.67,0,0,0,154.91,347.26Z"/><path d="M383.88,374.38a23.54,23.54,0,0,1-2.65-.15,23.15,23.15,0,0,1-20.34-20.41,14,14,0,0,1,2.28-25.08l3.64-31.85a2,2,0,0,0-.43-1.49,2,2,0,0,0-1.35-.76l-51.76-5.91a23.11,23.11,0,0,1,2.61-46.07,21.26,21.26,0,0,1,2.64.16l51.76,5.91a48.3,48.3,0,0,1,42.45,53.41l-5.92,51.75A23.08,23.08,0,0,1,383.88,374.38Z"/><path d="M315.88,249.09a15.4,15.4,0,0,1,1.91.11l51.76,5.91a41.87,41.87,0,0,1,36.79,46.3l-5.91,51.75A16.68,16.68,0,0,1,383.88,368a15.45,15.45,0,0,1-1.92-.11,16.68,16.68,0,0,1-14.68-18.47,7.58,7.58,0,0,1,.85-15.11,6.35,6.35,0,0,1,.87.05l4.2-36.69a8.47,8.47,0,0,0-7.44-9.36L314,282.35a16.68,16.68,0,0,1,1.88-33.26m0-12.85h0a29.53,29.53,0,0,0-3.34,58.87l47.39,5.42-2.75,24.06a20.47,20.47,0,0,0-2.2,32.89,29.54,29.54,0,0,0,58.22-2.86l5.91-51.75A54.73,54.73,0,0,0,371,242.35l-51.75-5.92a29.28,29.28,0,0,0-3.37-.19Z"/><path class="cls-8" d="M360.61,341a7.58,7.58,0,0,1,8.39-6.67h0l4.2-36.69a8.47,8.47,0,0,0-7.44-9.36L314,282.35a16.68,16.68,0,1,1,3.79-33.15l51.76,5.91a41.87,41.87,0,0,1,36.79,46.3l-5.91,51.75a16.68,16.68,0,0,1-33.15-3.79A7.57,7.57,0,0,1,360.61,341Z"/><path class="cls-9" d="M299.32,263.88a16.68,16.68,0,0,1,18.47-14.68l51.76,5.91a41.87,41.87,0,0,1,36.79,46.3l-4.21,36.83-34.61-3.95a7.34,7.34,0,0,1,1.48,0l4.2-36.69a8.47,8.47,0,0,0-7.44-9.36L314,282.35A16.69,16.69,0,0,1,299.32,263.88Z"/><g class="cls-10"><circle class="cls-11" cx="305.25" cy="322.27" r="15.95"/></g><path class="cls-12" d="M72.26,274.1c6.7,9.19,19.24,11.35,28,4.83l1.27-.94c8.76-6.52,10.43-19.25,3.73-28.44L79.05,213.64c-6.7-9.19-19.24-11.35-28-4.83l-1.27.95C41,216.28,39.34,229,46.05,238.19Z"/><path class="cls-12" d="M282.39,152.78c4.61,10.4.21,22.34-9.82,26.67l-1.45.62c-10,4.33-21.89-.58-26.49-11l-18-40.66c-4.6-10.39-.2-22.33,9.83-26.66l1.45-.63c10-4.33,21.88.59,26.49,11Z"/><path class="cls-12" d="M71.45,30.06c-51.89,30-85.43,69-51,128.65L125.22,303.4c21.2,40,98.69,25.65,113.81,16.92s59.36-64.64,42.26-107L208.37,50.22C173.94-9.41,123.34.1,71.45,30.06Z"/><path class="cls-12" d="M254.28,284.34l2.3,11.8c1.61,8.29,2.13,14.53-8.55,20.7l-16.51,9.53c-10.69,6.17-15.83,2.6-22.2-2.94l-9.07-7.89"/><path class="cls-13" d="M61.5,218.21l-6.66-34.82c-2.84-14.88-11.11-29.55-21-42.48h0a83.18,83.18,0,0,1-11.4-20.27L8.67,137.71Z"/><path class="cls-13" d="M193.24,29c-24-41.6-71.08-28.17-121.79,1.1S-14.41,93.38,9.6,135l1.55,2.1,12.58-11.79c-1.32-5.65,2.32-13.57,5.48-19.56l5.45-10.32C38.64,87.89,48.27,83.58,56,86a80.36,80.36,0,0,0,20.09,3.48,21.79,21.79,0,0,0,11.85-3L120,68c4.64-2.68,6.73-7.88,4.79-11.87-1.73-3.56-3.07-8.11-1.84-12.46l0-.16c2.17-7.53,10.37-13.12,18.52-12.81l16.6.62c6.77.26,15.45,1.07,19.68,5l16.5-5Z"/><path class="cls-13" d="M174.4,32.91a83.73,83.73,0,0,1,11.86,20h0c6.25,15,14.82,29.53,26.28,39.43l26.83,23.18-43.3-86Z"/><path class="cls-4" d="M238,116.32l-29.61-66.1C173.94-9.41,123.34.1,71.45,30.06s-85.43,69-51,128.65l42.44,58.7"/><g class="cls-14"><polyline class="cls-15" points="122.86 245.47 125.53 234.57 112.54 238.23"/></g><g class="cls-14"><polyline class="cls-15" points="227.33 185.16 216.55 182.02 226.22 172.6"/></g><ellipse class="cls-16" cx="182.97" cy="216.11" rx="8.39" ry="15.98" transform="translate(-56.69 65.3) rotate(-17.57)"/><path class="cls-4" d="M139.14,215.46a11.68,11.68,0,0,1,14-8.8"/><path class="cls-4" d="M204.16,177.92a11.69,11.69,0,0,0-14.62,7.72"/><path class="cls-17" d="M115.69,204.92l14-5.45a77,77,0,0,0,10.5-5.06l6.11-3.53"/><path class="cls-17" d="M202.19,155l-8.1,7.33a39.67,39.67,0,0,1-6.79,4.92l-4.39,2.54"/><g class="cls-18"><path class="cls-19" d="M159.77,246.23a30,30,0,0,1-3.41,4.44c-3.21,3.48-3,10.31.32,16.47l4.4,8.08"/><path class="cls-19" d="M162.91,238.57c0,.16,0-.15,0,0"/><path class="cls-19" d="M215.43,213.56a26.4,26.4,0,0,0,5.17-.9c4.46-1.23,9.43,2.46,12.05,8.8l3.44,8.32"/><path class="cls-19" d="M207.91,212.61h0"/></g><path class="cls-4" d="M183,262.83c5.17-18.86,18-14,17.41-14.48"/><path class="cls-4" d="M217.6,241.46c-14.82-3.33-17.12,7.37-17.17,6.89"/></g></g></g></svg>