<svg xmlns="http://www.w3.org/2000/svg" viewBox="0 0 53.04 66.03"><defs><style>.cls-1{fill:#002551;}.cls-1,.cls-2,.cls-3,.cls-4{fill-rule:evenodd;}.cls-2{fill:#0587aa;}.cls-3{fill:#36a6ce;}.cls-4{fill:none;stroke:#fff;stroke-linecap:round;stroke-linejoin:round;stroke-width:4.48px;opacity:0.2;}</style></defs><title>btn-circle</title><g id="Capa_2" data-name="Capa 2"><g id="Contenido"><path class="cls-1" d="M.39,39.71h0A26.32,26.32,0,0,1,26.71,13.38h0A26.34,26.34,0,0,1,53,39.71h0A26.32,26.32,0,0,1,26.71,66h0A26.32,26.32,0,0,1,.39,39.71Z"/><path class="cls-2" d="M0,33.28H0A26.6,26.6,0,0,1,26.49,6.57h0a26.39,26.39,0,0,1,18.74,7.82A26.83,26.83,0,0,1,53,33.28h0A26.61,26.61,0,0,1,26.49,60h0A26.6,26.6,0,0,1,0,33.28Z"/><path class="cls-3" d="M0,26.72H0A26.6,26.6,0,0,1,26.49,0h0A26.36,26.36,0,0,1,45.23,7.83,26.81,26.81,0,0,1,53,26.72h0a26.6,26.6,0,0,1-26.5,26.71h0A26.6,26.6,0,0,1,0,26.72Z"/><path class="cls-4" d="M26.71,6.57h0a20.2,20.2,0,0,1,20.2,20.19h0"/></g></g></svg>