<svg xmlns="http://www.w3.org/2000/svg" viewBox="0 0 35.4 49.83"><defs><style>.cls-1{fill:#00295b;}</style></defs><title>drop</title><g id="Capa_2" data-name="Capa 2"><g id="Contenido"><path class="cls-1" d="M35.19,29.41a17.56,17.56,0,0,0-2.43-6.35L19.47,1a2.07,2.07,0,0,0-3.54,0L2.64,23.06A17.56,17.56,0,0,0,.21,29.41a17.7,17.7,0,1,0,35,0Zm-9.88,7.73a6.1,6.1,0,0,1-2.3,2,10.22,10.22,0,0,1-3.48,1v2a.66.66,0,0,1-.21.5.7.7,0,0,1-.49.2H16.51a.69.69,0,0,1-.51-.2.68.68,0,0,1-.19-.5V40.25a9.79,9.79,0,0,1-3.6-1.1,6,6,0,0,1-2.17-2,4.82,4.82,0,0,1-.78-2.45.57.57,0,0,1,.18-.41.58.58,0,0,1,.43-.18H13.4a1,1,0,0,1,.59.14,2.66,2.66,0,0,1,.39.37,3.49,3.49,0,0,0,.63.81,3,3,0,0,0,1.06.63,4.85,4.85,0,0,0,1.64.24,4.73,4.73,0,0,0,2.45-.51A1.55,1.55,0,0,0,21,34.45a1.31,1.31,0,0,0-.45-1,4,4,0,0,0-1.44-.73A25.39,25.39,0,0,0,16.45,32a15.9,15.9,0,0,1-3.62-1.16A5.61,5.61,0,0,1,10.54,29a5.08,5.08,0,0,1-.78-2.9,5.11,5.11,0,0,1,1.61-3.8,7.62,7.62,0,0,1,4.44-2v-2a.65.65,0,0,1,.7-.7h2.32a.69.69,0,0,1,.49.19.66.66,0,0,1,.21.51v2a8.57,8.57,0,0,1,3.25,1.21,6.36,6.36,0,0,1,2,2,4.13,4.13,0,0,1,.72,2.1.58.58,0,0,1-.17.4.54.54,0,0,1-.42.18h-3.7a1.12,1.12,0,0,1-.53-.11,1,1,0,0,1-.39-.36,1.9,1.9,0,0,0-.9-1.08,3.41,3.41,0,0,0-1.87-.46,3.6,3.6,0,0,0-1.91.43,1.48,1.48,0,0,0-.7,1.33,1.42,1.42,0,0,0,.38,1,3,3,0,0,0,1.27.73,21,21,0,0,0,2.44.64,18.76,18.76,0,0,1,4.12,1.19,5.22,5.22,0,0,1,2.29,1.85,5.71,5.71,0,0,1-.1,5.76Z"/></g></g></svg>