<svg xmlns="http://www.w3.org/2000/svg" viewBox="0 0 311.67 235.3"><defs><style>.cls-1{fill:#00327a;}.cls-2{fill:#00295b;}.cls-3,.cls-7{fill:#fab231;}.cls-3,.cls-4,.cls-5,.cls-6,.cls-7,.cls-8{stroke:#000;stroke-linecap:round;stroke-linejoin:round;}.cls-3{stroke-width:7px;}.cls-4{fill:none;}.cls-4,.cls-5,.cls-6,.cls-7,.cls-8{stroke-width:7.84px;}.cls-5{fill:#4d4e4e;}.cls-6{fill:#fff;}.cls-8{fill:#1873b6;}</style></defs><title>eagle</title><g id="Capa_2" data-name="Capa 2"><g id="Contenido"><path class="cls-1" d="M33.49,57.71S38.17,25.06,73,25.06c0,0,9.43-22.73,33.53-24.85,38.09-3.35,27.13,34.42,27.13,34.42s17.86-1.86,16.1,12.66h25.52c5.75,0,9.19,4.66,7.67,10.42Z"/><path class="cls-1" d="M0,57.71H179S75,32.77,68.24,47.29H13.17C7.41,47.29,1.52,52,0,57.71Z"/><path class="cls-1" d="M194.62,158.9s3.38-16.24,19.65-16.24c0,0,9-29.31,37.25-29.31,29.16,0,24.17,26.87,24.17,26.87s13.73-1.5,13,10.24h16.44c4.65,0,7.43,3.78,6.2,8.44Z"/><ellipse class="cls-2" cx="126.11" cy="219.49" rx="87.93" ry="15.81"/><path class="cls-3" d="M123.49,225.7l8.79-12.82-12-38.92a6.77,6.77,0,0,1,13-3.83l12.42,42L169.53,211l22.14,16.88-22.38-2.2Z"/><polygon class="cls-4" points="121.58 218.52 131.85 212.3 133.89 218.6 121.58 218.52"/><path class="cls-3" d="M109.39,225.7l8.79-12.82-12-38.92a6.77,6.77,0,0,1,13-3.83l12.42,42L155.43,211l22.14,16.88-22.38-2.2Z"/><path class="cls-5" d="M136.52,117.53l-7.65,60c-1.31,6.41,6.65,9.57,11,4.35l67.29-79.59c8.36-11.26,3.37-25.08-2-30.47-8.47-8.46-24.36-3-33.37,6.5"/><path class="cls-5" d="M51.58,183.51l8-4.85c9.92-6,31.44-24,35.28-35,11-31.33,23.74-63.72,33.26-75.87a51.48,51.48,0,0,1,8.1-8.19,31.68,31.68,0,0,0,11.59-21.06L151,25.48C156.6,11.76,164.46,6.7,178.61,6.7c16.88,0,30.57,12.41,30.57,27.72a26.6,26.6,0,0,1-9.9,20.43,18.67,18.67,0,0,0-6.11,18.45C210.91,152.6,136,174.18,68.9,219.81c-4.07,2.77-9.25-2.21-7.81-6.91,1.24-4,2.8-9,4.59-14.72a7.18,7.18,0,0,0-7.18-9.33c-2,.08-3.79.11-5.41.11A2.94,2.94,0,0,1,51.58,183.51Z"/><path class="cls-6" d="M193.17,73.3a18.67,18.67,0,0,1,6.11-18.45,26.6,26.6,0,0,0,9.9-20.43c0-15.31-13.31-26.74-30.08-28.7-28.86-3.38-40.29,40.66-42.86,53.92l13.72-2a4.45,4.45,0,0,1,4.91,3.13L158,71.34a4.45,4.45,0,0,0,6.9,2.32l5.11-3.74a4.47,4.47,0,0,1,6.86,2.16l2.31,6.78a4.45,4.45,0,0,0,7.31,1.77L193.42,74"/><path class="cls-7" d="M205.85,34.09l5.7,1.82c6.64,2.11,14.5,10.36,13.71,17.28l-.75,6.54A3.06,3.06,0,0,1,219,61.15l-1.21-1.7c-3.34-4.72-6-3.53-11.38-1.35l-8,3.25a5.41,5.41,0,0,1-6.95-7.27L199.29,37A5.41,5.41,0,0,1,205.85,34.09Z"/><path class="cls-8" d="M171.84,27.32l7.44,8.33A2,2,0,0,1,177.6,39l-2-.17a7.85,7.85,0,0,1-7.19-7.52l-.1-2.59A2,2,0,0,1,171.84,27.32Z"/><path class="cls-5" d="M118.35,148.77,53.44,170.15c-6.83,2.84-12-5.32-7.18-11.22L120.1,67.15c10.69-11.7,27.1-9.14,34.25-4.3,11.2,7.58,8.54,26.38,0,38.43"/><polyline class="cls-5" points="131.72 165.36 129.67 192.24 142.62 192.24 169.65 154.23"/><polyline class="cls-5" points="112.75 160.47 112.75 192.24 127.96 192.24 141.95 166.62 170.15 152.56"/><line class="cls-4" x1="147.3" y1="110.43" x2="144.83" y2="113.36"/></g></g></svg>