<svg xmlns="http://www.w3.org/2000/svg" xmlns:xlink="http://www.w3.org/1999/xlink" viewBox="0 0 991.54 566.79"><defs><style>.cls-1{fill:none;}.cls-2{fill:#fff;}.cls-3{isolation:isolate;}.cls-4{clip-path:url(#clip-path);}.cls-5{fill:url(#Degradado_sin_nombre_61);}.cls-6{fill:#002756;}.cls-7{clip-path:url(#clip-path-2);}.cls-8{fill:#d10b29;}.cls-9{fill:#b7b7b7;mix-blend-mode:multiply;}.cls-10{fill:#930c26;}.cls-11{clip-path:url(#clip-path-3);}.cls-12{fill:#004589;}</style><clipPath id="clip-path" transform="translate(-68.39 -70.73)"><rect class="cls-1" width="1128.32" height="557.8"/></clipPath><radialGradient id="Degradado_sin_nombre_61" cx="562.52" cy="565.75" r="448.84" gradientUnits="userSpaceOnUse"><stop offset="0" stop-color="#fff" stop-opacity="0.5"/><stop offset="0.22" stop-color="#fff" stop-opacity="0.33"/><stop offset="0.43" stop-color="#fff" stop-opacity="0.19"/><stop offset="0.64" stop-color="#fff" stop-opacity="0.08"/><stop offset="0.82" stop-color="#fff" stop-opacity="0.02"/><stop offset="0.96" stop-color="#fff" stop-opacity="0"/></radialGradient><clipPath id="clip-path-2" transform="translate(-68.39 -70.73)"><polygon class="cls-2" points="749.28 429.18 580.43 429.18 648.57 590.05 817.42 590.05 749.28 429.18"/></clipPath><clipPath id="clip-path-3" transform="translate(-68.39 -70.73)"><path class="cls-2" d="M589.05,396.93H335.57L403.72,557.8h288l-54-128.52A52.78,52.78,0,0,0,589.05,396.93Z"/></clipPath></defs><title>flag</title><g class="cls-3"><g id="Capa_2" data-name="Capa 2"><g id="Contenido"><g class="cls-4"><path class="cls-5" d="M585.52,466.08,709.8,92.48a493.75,493.75,0,0,0-85.86-18.17Z" transform="translate(-68.39 -70.73)"/><path class="cls-5" d="M564.16,463.84,608,72.65q-21.67-1.91-43.87-1.92t-43.87,1.92Z" transform="translate(-68.39 -70.73)"/><path class="cls-5" d="M960.57,268.68a498.39,498.39,0,0,0-58.73-65.19L640.51,497.83Z" transform="translate(-68.39 -70.73)"/><path class="cls-5" d="M661.87,534.83l385.67-79.18a492.5,492.5,0,0,0-27.1-83.47Z" transform="translate(-68.39 -70.73)"/><path class="cls-5" d="M606,472.72,805.17,133.15A493.78,493.78,0,0,0,725,97.41Z" transform="translate(-68.39 -70.73)"/><path class="cls-5" d="M1050.85,471.3,666.33,555.84l393.6,2.74A497.58,497.58,0,0,0,1050.85,471.3Z" transform="translate(-68.39 -70.73)"/><path class="cls-5" d="M624.55,483.46,890,192.79a497.74,497.74,0,0,0-71-51.63Z" transform="translate(-68.39 -70.73)"/><path class="cls-5" d="M653.13,515.21l360.8-157.64a496.33,496.33,0,0,0-43.95-76Z" transform="translate(-68.39 -70.73)"/><path class="cls-5" d="M504.38,74.31a493.45,493.45,0,0,0-85.85,18.17L542.8,466.08Z" transform="translate(-68.39 -70.73)"/><path class="cls-5" d="M403.31,97.41a493.68,493.68,0,0,0-80.15,35.74L522.38,472.72Z" transform="translate(-68.39 -70.73)"/><path class="cls-5" d="M503.78,483.46,309.32,141.16a497.18,497.18,0,0,0-70.95,51.63Z" transform="translate(-68.39 -70.73)"/><path class="cls-5" d="M487.82,497.83,226.48,203.49a499.11,499.11,0,0,0-58.73,65.19Z" transform="translate(-68.39 -70.73)"/><path class="cls-5" d="M475.19,515.21,158.34,281.61a495.45,495.45,0,0,0-43.94,76Z" transform="translate(-68.39 -70.73)"/><path class="cls-5" d="M466.46,534.83,107.89,372.18a491.64,491.64,0,0,0-27.11,83.47Z" transform="translate(-68.39 -70.73)"/><path class="cls-5" d="M462,555.84,77.47,471.3a497.58,497.58,0,0,0-9.08,87.28Z" transform="translate(-68.39 -70.73)"/><path class="cls-6" d="M589,396.93a52.19,52.19,0,0,1,48.24,32.25H749.28l68.14,160.87H648.57L634.91,557.8H403.72L335.57,396.93H589m0-7.92H335.57a7.92,7.92,0,0,0-7.29,11l68.15,160.87a7.91,7.91,0,0,0,7.29,4.83H629.66l11.62,27.42a7.91,7.91,0,0,0,7.29,4.83H817.42a7.92,7.92,0,0,0,7.3-11L756.57,426.09a7.91,7.91,0,0,0-7.29-4.83h-107A59.92,59.92,0,0,0,589,389Z" transform="translate(-68.39 -70.73)"/><polygon class="cls-2" points="680.88 358.45 512.03 358.45 580.18 519.32 749.03 519.32 680.88 358.45"/><g class="cls-7"><polygon class="cls-8" points="782.24 487.14 510.9 487.14 531.36 519.32 802.7 519.32 782.24 487.14"/><polygon class="cls-8" points="732.94 422.8 469.97 422.8 490.44 454.97 748.3 454.97 732.94 422.8"/><polygon class="cls-8" points="682.29 358.45 429.05 358.45 449.51 390.62 697.65 390.62 682.29 358.45"/><polygon class="cls-9" points="603.6 358.45 429.05 358.45 501.27 519.32 670.73 519.32 603.6 358.45"/></g><polygon class="cls-10" points="623.3 487.06 580.18 519.32 566.52 487.06 623.3 487.06"/><path class="cls-2" d="M589.05,396.93H335.57L403.72,557.8h288l-54-128.52A52.78,52.78,0,0,0,589.05,396.93Z" transform="translate(-68.39 -70.73)"/><g class="cls-11"><polygon class="cls-8" points="666.51 454.89 253.41 454.89 273.87 487.06 686.98 487.06 666.51 454.89"/><polygon class="cls-8" points="625.59 390.54 256.56 390.54 246.41 422.71 646.05 422.71 625.59 390.54"/><polygon class="cls-8" points="584.66 326.19 215.64 326.19 236.1 358.37 605.12 358.37 584.66 326.19"/><polygon class="cls-12" points="381.31 261.85 194.69 261.85 262.84 422.71 453.95 422.71 381.31 261.85"/></g><polygon class="cls-10" points="623.3 487.06 580.18 519.32 566.52 487.06 623.3 487.06"/><path class="cls-6" d="M323.47,382.58h0a10.34,10.34,0,0,0-9.53,14.34L415,637.53h22.44L333,388.91A10.33,10.33,0,0,0,323.47,382.58Z" transform="translate(-68.39 -70.73)"/><path class="cls-12" d="M325.32,388.11h0a2.19,2.19,0,0,0-2,3l36,84.38a2.2,2.2,0,0,0,2,1.33h0a2.19,2.19,0,0,0,2-3.05l-36-84.33A2.19,2.19,0,0,0,325.32,388.11Z" transform="translate(-68.39 -70.73)"/><path class="cls-2" d="M367.22,406.29l3.26,3.8a1.58,1.58,0,0,0,.95.55l4.42.61c.86.12,1.55,1.12,1.17,1.7l-2,3a.85.85,0,0,0,0,.88l2.24,4.19c.43.81-.2,1.43-1.07,1l-4.47-2a1,1,0,0,0-.93,0l-3,2c-.59.38-1.67-.24-1.83-1l-.8-4.19a1.53,1.53,0,0,0-.61-.88l-4.12-3c-.8-.58-.84-1.58-.06-1.7l4-.61a.63.63,0,0,0,.56-.55l.49-3.8C365.52,405.55,366.58,405.55,367.22,406.29Z" transform="translate(-68.39 -70.73)"/><path class="cls-2" d="M399.7,406.29l3.26,3.8a1.58,1.58,0,0,0,1,.55l4.42.61c.86.12,1.56,1.12,1.17,1.7l-2,3a.85.85,0,0,0,0,.88l2.24,4.19c.43.81-.2,1.43-1.07,1l-4.47-2a1,1,0,0,0-.93,0l-3,2c-.59.38-1.67-.24-1.83-1l-.8-4.19a1.49,1.49,0,0,0-.61-.88L393,413c-.81-.58-.85-1.58-.07-1.7l4-.61a.63.63,0,0,0,.56-.55l.49-3.8C398,405.55,399.06,405.55,399.7,406.29Z" transform="translate(-68.39 -70.73)"/><path class="cls-2" d="M432.18,406.29l3.26,3.8a1.61,1.61,0,0,0,.95.55l4.42.61c.86.12,1.56,1.12,1.18,1.7l-2,3a.85.85,0,0,0,0,.88L442.3,421c.44.81-.19,1.43-1.07,1l-4.47-2a1,1,0,0,0-.93,0l-3,2c-.6.38-1.68-.24-1.84-1l-.8-4.19a1.49,1.49,0,0,0-.61-.88l-4.11-3c-.81-.58-.84-1.58-.07-1.7l4-.61a.63.63,0,0,0,.55-.55l.49-3.8C430.49,405.55,431.55,405.55,432.18,406.29Z" transform="translate(-68.39 -70.73)"/><path class="cls-2" d="M376.77,432.23,380,436a1.59,1.59,0,0,0,.95.54l4.42.61c.86.12,1.55,1.13,1.17,1.7l-2,3a.89.89,0,0,0,0,.89l2.24,4.18c.44.81-.19,1.43-1.06,1.05l-4.48-2a1,1,0,0,0-.93,0l-3,2c-.59.38-1.68-.24-1.83-1.05l-.81-4.18a1.48,1.48,0,0,0-.61-.89l-4.11-3c-.8-.57-.84-1.58-.07-1.7l4-.61a.62.62,0,0,0,.55-.54l.49-3.81C375.08,431.49,376.14,431.49,376.77,432.23Z" transform="translate(-68.39 -70.73)"/><path class="cls-2" d="M409.26,432.23l3.26,3.81a1.59,1.59,0,0,0,1,.54l4.42.61c.86.12,1.55,1.13,1.17,1.7l-2,3a.89.89,0,0,0,0,.89l2.24,4.18c.44.81-.19,1.43-1.06,1.05l-4.48-2a.94.94,0,0,0-.92,0l-3,2c-.59.38-1.67-.24-1.83-1.05l-.81-4.18a1.51,1.51,0,0,0-.6-.89l-4.12-3c-.8-.57-.84-1.58-.07-1.7l4-.61A.62.62,0,0,0,407,436l.5-3.81C407.56,431.49,408.62,431.49,409.26,432.23Z" transform="translate(-68.39 -70.73)"/><path class="cls-2" d="M441.74,432.23,445,436a1.62,1.62,0,0,0,.95.54l4.42.61c.86.12,1.55,1.13,1.17,1.7l-2,3a.87.87,0,0,0,0,.89l2.23,4.18c.44.81-.19,1.43-1.06,1.05l-4.47-2a1,1,0,0,0-.93,0l-3,2c-.59.38-1.67-.24-1.83-1.05l-.8-4.18a1.52,1.52,0,0,0-.61-.89l-4.12-3c-.8-.57-.84-1.58-.06-1.7l4-.61a.61.61,0,0,0,.55-.54l.5-3.81C440,431.49,441.1,431.49,441.74,432.23Z" transform="translate(-68.39 -70.73)"/><path class="cls-2" d="M387.81,458.32l3.26,3.81a1.65,1.65,0,0,0,.95.54l4.42.61c.87.12,1.56,1.13,1.18,1.7l-2,3a.85.85,0,0,0,0,.88l2.24,4.18c.44.81-.19,1.44-1.07,1.05l-4.47-2a1,1,0,0,0-.93,0l-3,2c-.59.39-1.68-.24-1.83-1.05l-.81-4.18a1.43,1.43,0,0,0-.61-.88l-4.11-3c-.8-.57-.84-1.58-.07-1.7l4-.61a.62.62,0,0,0,.55-.54l.49-3.81C386.12,457.58,387.18,457.58,387.81,458.32Z" transform="translate(-68.39 -70.73)"/><path class="cls-2" d="M420.29,458.32l3.27,3.81a1.59,1.59,0,0,0,.95.54l4.42.61c.86.12,1.55,1.13,1.17,1.7l-2,3a.87.87,0,0,0,0,.88l2.24,4.18c.44.81-.19,1.44-1.06,1.05l-4.48-2a1,1,0,0,0-.93,0l-3,2c-.59.39-1.68-.24-1.83-1.05l-.81-4.18a1.43,1.43,0,0,0-.61-.88l-4.11-3c-.8-.57-.84-1.58-.07-1.7l4-.61a.62.62,0,0,0,.55-.54l.49-3.81C418.6,457.58,419.66,457.58,420.29,458.32Z" transform="translate(-68.39 -70.73)"/><path class="cls-2" d="M452.78,458.32l3.26,3.81a1.62,1.62,0,0,0,.95.54l4.42.61c.86.12,1.55,1.13,1.17,1.7l-2,3a.87.87,0,0,0,0,.88l2.24,4.18c.44.81-.19,1.44-1.06,1.05l-4.47-2a1,1,0,0,0-.93,0l-3,2c-.59.39-1.67-.24-1.83-1.05l-.81-4.18a1.42,1.42,0,0,0-.6-.88L446,465c-.8-.57-.84-1.58-.07-1.7l4-.61a.61.61,0,0,0,.55-.54l.5-3.81C451.08,457.58,452.14,457.58,452.78,458.32Z" transform="translate(-68.39 -70.73)"/><path class="cls-2" d="M464.66,406.29l3.26,3.8a1.61,1.61,0,0,0,.95.55l4.42.61c.87.12,1.56,1.12,1.18,1.7l-2,3a.87.87,0,0,0,0,.88l2.24,4.19c.44.81-.19,1.43-1.06,1l-4.48-2a1,1,0,0,0-.93,0l-3,2c-.59.38-1.68-.24-1.83-1l-.81-4.19a1.49,1.49,0,0,0-.61-.88l-4.11-3c-.8-.58-.84-1.58-.07-1.7l4-.61a.62.62,0,0,0,.55-.55l.49-3.8C463,405.55,464,405.55,464.66,406.29Z" transform="translate(-68.39 -70.73)"/><path class="cls-2" d="M474.22,432.23l3.26,3.81a1.62,1.62,0,0,0,.95.54l4.42.61c.86.12,1.55,1.13,1.17,1.7l-2,3a.87.87,0,0,0,0,.89l2.24,4.18c.43.81-.2,1.43-1.07,1.05l-4.47-2a1,1,0,0,0-.93,0l-3,2c-.59.38-1.67-.24-1.83-1.05l-.8-4.18a1.48,1.48,0,0,0-.61-.89l-4.12-3c-.8-.57-.84-1.58-.06-1.7l4-.61a.63.63,0,0,0,.56-.54l.49-3.81C472.53,431.49,473.58,431.49,474.22,432.23Z" transform="translate(-68.39 -70.73)"/><path class="cls-2" d="M485.26,458.32l3.26,3.81a1.62,1.62,0,0,0,1,.54l4.42.61c.86.12,1.55,1.13,1.17,1.7l-2,3a.85.85,0,0,0,0,.88l2.23,4.18c.44.81-.19,1.44-1.06,1.05l-4.47-2a1,1,0,0,0-.93,0l-3,2c-.59.39-1.67-.24-1.83-1.05l-.8-4.18a1.47,1.47,0,0,0-.61-.88l-4.12-3c-.8-.57-.84-1.58-.06-1.7l4-.61a.61.61,0,0,0,.55-.54l.5-3.81C483.56,457.58,484.62,457.58,485.26,458.32Z" transform="translate(-68.39 -70.73)"/><circle class="cls-12" cx="296.54" cy="412.57" r="2.78"/></g></g></g></g></svg>