<svg xmlns="http://www.w3.org/2000/svg" viewBox="0 0 508.74 647.98"><defs><style>.cls-1{isolation:isolate;}.cls-2{fill:#f5e938;}.cls-2,.cls-4,.cls-5,.cls-9{stroke:#000;}.cls-12,.cls-13,.cls-15,.cls-17,.cls-2,.cls-4,.cls-5,.cls-9{stroke-linecap:round;stroke-linejoin:round;}.cls-12,.cls-2,.cls-4,.cls-5,.cls-9{stroke-width:12.85px;}.cls-3{fill:#1d1c1a;}.cls-12,.cls-13,.cls-15,.cls-17,.cls-4{fill:none;}.cls-5,.cls-6{fill:#ea252e;}.cls-7,.cls-9{fill:#f6a996;}.cls-8{fill:#2f398c;}.cls-10{fill:#fff;stroke-miterlimit:10;stroke-width:5.62px;}.cls-10,.cls-17{stroke:#fff;}.cls-11{fill:#62acdc;}.cls-12{stroke:#ea885b;}.cls-13,.cls-15{stroke:#491213;stroke-width:6.42px;}.cls-13,.cls-14,.cls-17{opacity:0.3;}.cls-13,.cls-14,.cls-16{mix-blend-mode:multiply;}.cls-16{fill:#ee6042;opacity:0.6;}.cls-17{stroke-width:8.83px;mix-blend-mode:screen;}.cls-18{fill:#f9fafb;}</style></defs><title>hilary</title><g class="cls-1"><g id="Capa_2" data-name="Capa 2"><g id="Contenido"><path class="cls-2" d="M421.91,257.8c.16,1.36-3.68,32.14-6.29,52.74a13.68,13.68,0,0,1-19.68,10.51c-18.65-9.27-45.94-25.78-48-43.84C344.68,249.57,415.74,206.64,421.91,257.8Z"/><path class="cls-2" d="M227.37,145.48c-1.26.54-26,19.26-42.53,31.82a13.68,13.68,0,0,0,.74,22.3c17.35,11.52,45.29,26.9,62,19.68C273.11,208.25,274.76,125.24,227.37,145.48Z"/><path d="M190.19,336.12c13.54,0,29.09,4.35,46,14.1C278,374.38,287.08,408,271.9,434.33c-9.06,15.68-24.7,25.21-44.73,25.21-13.54,0-29.1-4.36-46-14.1-41.85-24.17-50.91-57.82-35.73-84.11,9.06-15.69,24.7-25.21,44.73-25.21m0-12.85c-23.89,0-44.25,11.53-55.86,31.63a61.92,61.92,0,0,0-4.4,53.85c7,18.38,22.5,34.92,44.84,47.81,18.18,10.5,35.81,15.83,52.4,15.83,23.89,0,44.25-11.53,55.85-31.64a61.87,61.87,0,0,0,4.41-53.84c-7-18.39-22.5-34.92-44.84-47.82-18.19-10.5-35.82-15.82-52.4-15.82Z"/><path class="cls-3" d="M91.16,518,70.64,506.16c-5.76-3.33-13.57-2.68-19.12,1.15h0c-12.39-7.15-30.11-4-39.57,7.06s-7.1,25.82,5.29,33l22.85,13.19c12.39,7.16,30.11,4,39.57-7.06h0l14.48-16.9C99.47,530.35,98.14,522,91.16,518Z"/><path class="cls-4" d="M94.42,536.73,80,553.63c-9.47,11.06-27.19,14.22-39.58,7.07L17.52,547.5c-12.39-7.15-14.76-21.91-5.29-33s27.18-14.22,39.57-7.06h0c5.55-3.84,13.36-4.48,19.12-1.16l20.53,11.85C98.42,522.2,99.75,530.51,94.42,536.73Z"/><line class="cls-4" x1="51.8" y1="507.48" x2="65.88" y2="515.6"/><path class="cls-5" d="M137.85,407.1c9.46-11.05,27.18-14.21,39.57-7.06s14.76,21.91,5.29,33L101,530.68,56.13,504.77Z"/><path class="cls-3" d="M163.64,559.85l20.52,11.85c5.76,3.33,9.11,10.41,8.56,17.13h0c12.39,7.16,18.51,24.08,13.67,37.81s-18.8,19.05-31.19,11.9l-22.85-13.19c-12.39-7.16-18.51-24.08-13.67-37.81h0l7.39-21C148.8,558.83,156.66,555.82,163.64,559.85Z"/><path class="cls-4" d="M145.79,566.39l-7.4,21c-4.83,13.73,1.29,30.65,13.68,37.8l22.85,13.2c12.39,7.15,26.35,1.82,31.19-11.9s-1.28-30.65-13.67-37.81h0c.55-6.72-2.8-13.8-8.56-17.13l-20.53-11.85C156.38,555.66,148.52,558.66,145.79,566.39Z"/><line class="cls-4" x1="192.44" y1="588.67" x2="178.37" y2="580.55"/><path class="cls-5" d="M236.34,464c4.84-13.72-1.28-30.65-13.67-37.8s-26.35-1.83-31.19,11.9l-43.73,119.6,44.87,25.9Z"/><ellipse cx="208.68" cy="397.83" rx="54.97" ry="73" transform="translate(-240.19 379.63) rotate(-60)"/><path class="cls-6" d="M297.49,244C236.82,209,214.74,220.78,129,365.75l-9.57,16.59c6.73,10.19,34.12,30.6,68.92,50.69s66.17,33.61,78.37,34.35l9.57-16.59C359,304.05,358.15,279,297.49,244Z"/><path class="cls-5" d="M334,272.25l-5.77,14.06A81.47,81.47,0,0,1,307.26,316c-9.17,8.21-13.55-24-31-33.88-17.84-10.15-48.61,1.73-46-10.58a81.48,81.48,0,0,1,15.26-33l9.3-12c-37.11-5.07-66,28.79-130,136.78l-26,45c7.27,10.5,36.34,31.87,73.11,53.11s69.83,35.71,82.55,36.76l26-45C342,343.84,356.89,301.86,334,272.25Z"/><path d="M133.75,341a23.09,23.09,0,0,1-22.94-20.48l-5.92-51.76a48.3,48.3,0,0,1,42.46-53.41l51.75-5.91a23.5,23.5,0,0,1,2.64-.15,23.1,23.1,0,0,1,2.61,46.06l-51.76,5.92a2,2,0,0,0-1.78,2.24l3.64,31.85a14,14,0,0,1,2.28,25.1,23.14,23.14,0,0,1-20.34,20.39A23.5,23.5,0,0,1,133.75,341Z"/><path d="M201.75,215.68a16.68,16.68,0,0,1,1.87,33.26l-51.76,5.91a8.47,8.47,0,0,0-7.44,9.36l4.2,36.69a8.46,8.46,0,0,1,.87,0,7.58,7.58,0,0,1,.85,15.12,16.69,16.69,0,0,1-14.68,18.47,17.62,17.62,0,0,1-1.91.11,16.69,16.69,0,0,1-16.56-14.79L111.28,268a41.86,41.86,0,0,1,36.8-46.29l51.75-5.92a17.65,17.65,0,0,1,1.92-.11m0-12.85a31.76,31.76,0,0,0-3.38.19l-51.75,5.92a54.73,54.73,0,0,0-48.11,60.52l5.92,51.76a29.53,29.53,0,0,0,58.21,2.83,20.43,20.43,0,0,0-2.2-32.87l-2.75-24.06,47.39-5.42a29.53,29.53,0,0,0-3.33-58.87Z"/><path class="cls-7" d="M157,307.57a7.58,7.58,0,0,0-8.39-6.67h0l-4.2-36.69a8.47,8.47,0,0,1,7.44-9.36l51.76-5.91a16.68,16.68,0,0,0-3.79-33.15l-51.75,5.92A41.86,41.86,0,0,0,111.28,268l5.91,51.76A16.68,16.68,0,0,0,150.34,316,7.59,7.59,0,0,0,157,307.57Z"/><path class="cls-6" d="M218.3,230.47a16.69,16.69,0,0,0-18.47-14.68l-51.75,5.92A41.86,41.86,0,0,0,111.28,268l4.21,36.83,34.61-3.95a7.34,7.34,0,0,0-1.48,0l-4.2-36.69a8.47,8.47,0,0,1,7.44-9.36l51.76-5.91A16.69,16.69,0,0,0,218.3,230.47Z"/><path d="M315.4,445.83a23.12,23.12,0,0,1-13.71-41.73,14,14,0,0,1,22.86-10.55L354,380.77a2,2,0,0,0,1.07-1.11,2,2,0,0,0,0-1.56l-20.75-47.78a23.12,23.12,0,0,1,12-30.39,22.77,22.77,0,0,1,9.19-1.92,23.1,23.1,0,0,1,21.2,13.9l20.76,47.78a48.3,48.3,0,0,1-25,63.47l-47.78,20.75A22.81,22.81,0,0,1,315.4,445.83Z"/><path d="M355.44,304.43a16.69,16.69,0,0,1,15.31,10l20.76,47.78a41.88,41.88,0,0,1-21.7,55L322,438a16.68,16.68,0,0,1-13.29-30.6,7.59,7.59,0,0,1,3.93-10,7.7,7.7,0,0,1,3-.62,7.58,7.58,0,0,1,7,4.56l33.87-14.71a8.47,8.47,0,0,0,4.38-11.13l-20.75-47.78a16.7,16.7,0,0,1,15.29-23.33m0-12.85h0a29.54,29.54,0,0,0-27.07,41.3l19,43.75-22.22,9.65a20.45,20.45,0,0,0-28.46,10.62,21,21,0,0,0-1.11,3.9,29.54,29.54,0,0,0,31.57,49l47.78-20.76a54.72,54.72,0,0,0,28.36-71.92l-20.75-47.78a29.54,29.54,0,0,0-27.1-17.77Z"/><path class="cls-7" d="M312.67,397.44a7.6,7.6,0,0,1,10,3.94h0l33.87-14.71a8.47,8.47,0,0,0,4.38-11.13l-20.75-47.77a16.68,16.68,0,0,1,30.6-13.3l20.76,47.78a41.88,41.88,0,0,1-21.7,55L322,438a16.68,16.68,0,0,1-13.29-30.6A7.59,7.59,0,0,1,312.67,397.44Z"/><path class="cls-6" d="M348.81,305.82a16.67,16.67,0,0,1,21.94,8.65l20.76,47.78a41.88,41.88,0,0,1-21.7,55l-34,14.77-13.88-32a7.75,7.75,0,0,1,.72,1.3l33.87-14.71a8.46,8.46,0,0,0,4.38-11.13l-20.75-47.77A16.68,16.68,0,0,1,348.81,305.82Z"/><circle id="SVGID" class="cls-8" cx="288.84" cy="342.28" r="15.95"/><line class="cls-4" x1="271.54" y1="287.45" x2="173.12" y2="457.92"/><path class="cls-9" d="M215.87,157.59c-4.31,10.54,1.27,23,12.46,27.78l1.62.69c11.19,4.8,23.75.15,28.06-10.39l16.85-41.23c4.3-10.54-1.27-23-12.46-27.78l-1.62-.7c-11.19-4.8-23.76-.14-28.06,10.4Z"/><path class="cls-9" d="M414.56,272.3c-7,9-20.54,10.39-30.29,3.1l-1.41-1.06c-9.76-7.29-12-20.49-5-29.5l27.28-35.2c7-9,20.54-10.39,30.29-3.1l1.41,1.06c9.76,7.29,12,20.5,5,29.5Z"/><path class="cls-9" d="M388.34,63.09c-45-32.63-96.78-26.12-113.45,2.75L222.42,174.36c-5.14,10.61-5,23.25.39,34.77,10.91,23.28,30.95,62.22,52.62,74.73s65.41,10.4,91,8.2c12.68-1.09,23.69-7.29,30.31-17l67.74-99.71c16.71-28.93-1.28-74.76-54.2-99.29A131.92,131.92,0,0,1,388.34,63.09Z"/><path class="cls-10" d="M330.51,164.89c-7.16,12.4-20,15.47-30.2,9.56s-14-18.54-6.82-30.94,21.25-17.66,31.47-11.76S337.67,152.49,330.51,164.89Z"/><path class="cls-10" d="M388.23,198.21c-7.16,12.4-20,15.47-30.21,9.57s-14-18.54-6.82-30.94,21.25-17.67,31.48-11.77S395.39,185.81,388.23,198.21Z"/><path class="cls-11" d="M312.32,150.26l-3.26-9.53c3.95-5.19,7-5.84,11.37-3.32,5.75,3.32,5.6,7.42-.66,18.27s-9.75,13-15.5,9.71c-4.24-2.44-5.27-5.32-3-11l9.79-1.92A1.65,1.65,0,0,0,312.32,150.26Z"/><path class="cls-11" d="M371.26,184.29,368,174.76c4-5.19,7-5.84,11.37-3.32,5.75,3.32,5.61,7.42-.66,18.27s-9.74,13-15.5,9.71c-4.24-2.44-5.27-5.32-3-11l9.79-1.92A1.65,1.65,0,0,0,371.26,184.29Z"/><ellipse class="cls-7" cx="300.28" cy="171.16" rx="16.03" ry="33.36" transform="translate(1.91 345.63) rotate(-60)"/><ellipse class="cls-7" cx="359.89" cy="205.58" rx="16.03" ry="33.36" transform="translate(1.91 414.47) rotate(-60)"/><path class="cls-12" d="M306.25,106.18l3.73-2.52a22.31,22.31,0,0,1,14-3.78L347,102.4"/><path class="cls-12" d="M416.69,170.2l.49-4.47A22.24,22.24,0,0,0,414,151.6l-13-19.24"/><path class="cls-13" d="M399.86,231c-4,6.87-14.79,8-24.19,2.61s-13.79-15.39-9.83-22.25"/><path class="cls-13" d="M291.09,168.18c-4,6.87-14.79,8-24.19,2.61s-13.8-15.38-9.83-22.25"/><g class="cls-14"><polyline class="cls-15" points="273.72 134.96 284.23 133.18 273.64 123.86"/></g><g class="cls-14"><polyline class="cls-15" points="405.52 211.05 401.81 201.07 415.18 205.57"/></g><ellipse class="cls-16" cx="333.06" cy="184.07" rx="10.44" ry="8.04" transform="translate(15.71 394.07) rotate(-62.42)"/><path class="cls-17" d="M273.19,149.62a22.46,22.46,0,0,1,6.58,2.57"/><path class="cls-17" d="M394.35,219.57a22.48,22.48,0,0,0-5.51-4.41"/><path class="cls-6" d="M333.58,242.72c1-4.41,2.35-8.42,3.4-12.62a44.15,44.15,0,0,0,1.67-12.78,24.26,24.26,0,0,0-1.39-7.19,17.91,17.91,0,0,0-3.75-6.21,23.88,23.88,0,0,0-3.78-3.22,33,33,0,0,0-4.19-2.33,47.39,47.39,0,0,0-5-3,34.27,34.27,0,0,0-5.54-2.17,23.3,23.3,0,0,0-8.4-.8,26.65,26.65,0,0,0-7.77,1.9,40.39,40.39,0,0,0-11.11,7.33c-3.32,2.89-6.3,5.93-9.83,8.91a8.77,8.77,0,0,0-2.9,4.22,4.8,4.8,0,0,0-.23,1.63,2.73,2.73,0,0,1-.07.7,1.3,1.3,0,0,0-.1.15l.05,0a5.6,5.6,0,0,1-.26.68,3.14,3.14,0,0,0,1.57,4.26A289.64,289.64,0,0,1,303.79,236c4.44,2.58,7.24,4.41,10.75,6.87s7,5.07,10.5,7.69a2.62,2.62,0,0,0,3.24-.25,3.31,3.31,0,0,0,.49-.5,12.23,12.23,0,0,1,1.72-1.73,6.77,6.77,0,0,0,.82-.8A10.56,10.56,0,0,0,333.58,242.72Z"/><path d="M319.46,232.05a44.54,44.54,0,0,1,6.22,7.17c.35.5,1.11.31,1.41-.33v0a24.17,24.17,0,0,0,1.7-5.63,35.32,35.32,0,0,0,.52-5.58,50.28,50.28,0,0,0-.24-5.85c0-.53-.13-1-.2-1.57s-.17-1.06-.3-1.58a23.62,23.62,0,0,0-.87-3.09,20.93,20.93,0,0,0-1.28-2.89,18.89,18.89,0,0,0-1.65-2.52,13.55,13.55,0,0,0-4-3.53,21.42,21.42,0,0,0-6-2.27,23.73,23.73,0,0,0-7.09-.37,25.69,25.69,0,0,0-3.53.55c-.58.11-1.14.29-1.7.42s-1.1.32-1.63.51a48.75,48.75,0,0,0-5.74,2.4,33.27,33.27,0,0,0-5,3,20.4,20.4,0,0,0-4.26,4.15l0,0a1,1,0,0,0,.59,1.51C299.35,218.55,311.43,224.62,319.46,232.05Z"/><path class="cls-18" d="M329.08,221.81c0-.53-.13-1-.2-1.57s-.17-1.06-.3-1.58a23.62,23.62,0,0,0-.87-3.09,20.93,20.93,0,0,0-1.28-2.89,18.89,18.89,0,0,0-1.65-2.52,13.55,13.55,0,0,0-4-3.53,21.42,21.42,0,0,0-6-2.27,23.73,23.73,0,0,0-7.09-.37,25.93,25.93,0,0,0-3.53.55c-.58.11-1.14.29-1.7.42h0a1.63,1.63,0,0,0-.42,2.9l24.67,16.78a1.63,1.63,0,0,0,2.55-1.46C329.17,222.74,329.13,222.27,329.08,221.81Z"/><path class="cls-9" d="M326.67,275.86l-15.61,13.45c-9.4,8.09-25.33,8.28-38.87.46h0c-13.54-7.82-21.34-21.7-19-33.89L257,235.63"/><circle class="cls-18" cx="406.42" cy="286.59" r="10.69"/><circle class="cls-18" cx="209.84" cy="174.41" r="10.69"/><path class="cls-2" d="M339.17,68.94c-2.52-1.14-4.32-44.55-4.32-44.55s16-22.77,51.15-17C434.62,15.29,520.06,63.21,499.06,188c0,0-50.23,59.58-85.24,83.23l13-129.45S430.78,110.33,339.17,68.94Z"/><path class="cls-2" d="M333.83,33.73S283.9,9.53,267.28,16.19c-8.74,3.5-68.2,74.1-49.07,143.07,0,0,9.85-57.88,120.07-93.61Z"/><path class="cls-4" d="M345.92,63s63.92-21.71,78.67-2.33,3.08,70.7,1.75,86.21"/><path class="cls-4" d="M464.22,188.15c.32.42.65.82,1,1.23"/><path class="cls-4" d="M446.6,34.15l7.65,10.47a53.63,53.63,0,0,1,9.31,39.9l-9.64,62.29A54.56,54.56,0,0,0,458.6,179"/></g></g></g></svg>