<svg xmlns="http://www.w3.org/2000/svg" viewBox="0 0 42.07 42.07"><defs><style>.cls-1{fill:#00295b;}</style></defs><title>list</title><g id="Capa_2" data-name="Capa 2"><g id="Contenido"><path class="cls-1" d="M39.78,0H2.28a4.42,4.42,0,0,0-.63,0A1.89,1.89,0,0,0,0,1.94C0,3.12.82,3.81,2.25,3.81h.86c0,6.88,0,28.3,0,36.69,0,.59,0,1.19.65,1.47s1-.11,1.48-.49C6.46,40.37,7.71,39.27,9,38.17l1.11-1,.39.38,4.08,4a1.1,1.1,0,0,0,1.79,0l1.6-1.47,3.16-2.93c.15.14.27.24.38.36l3.94,3.88c.83.82,1.26.82,2.12,0L32,37.19l.38.32,4.44,3.92c.45.41.88.84,1.55.53s.61-.91.61-1.49V3.81h.43a9.49,9.49,0,0,0,1.07,0A1.83,1.83,0,0,0,42.07,2C42.12.76,41.28,0,39.78,0ZM18.53,29.78a6.44,6.44,0,0,1-.76,0H10.34a2,2,0,0,1-.53-4,3.54,3.54,0,0,1,.46,0h7.67a2.41,2.41,0,0,1,1.8.66,2,2,0,0,1-1.21,3.36Zm13.75-8a6.35,6.35,0,0,1-.76,0H10.34a2,2,0,0,1-.53-4,3.54,3.54,0,0,1,.46,0H31.7a2.44,2.44,0,0,1,1.79.65,2,2,0,0,1-1.21,3.37Zm0-8a6.27,6.27,0,0,1-.75,0H10.34a2,2,0,0,1-.53-4,3.54,3.54,0,0,1,.46,0H31.7a2.4,2.4,0,0,1,1.79.66,2,2,0,0,1-1.21,3.36Z"/></g></g></svg>