<svg xmlns="http://www.w3.org/2000/svg" viewBox="0 0 160 67.57"><defs><style>.cls-1{fill:#d10b29;}.cls-2{fill:#9e0724;}.cls-2,.cls-3{fill-rule:evenodd;}.cls-3{fill:#002551;}.cls-4{fill:none;stroke:#fff;stroke-linecap:round;stroke-linejoin:round;stroke-width:4.86px;opacity:0.2;}</style></defs><title>red_btn</title><g id="Capa_2" data-name="Capa 2"><g id="Contenido"><rect class="cls-1" width="160" height="53.43" rx="7"/><path class="cls-2" d="M153.6,52.44H6.4A6.49,6.49,0,0,1,0,45.87v7.55A6.49,6.49,0,0,0,6.4,60H153.6a6.49,6.49,0,0,0,6.4-6.58V45.87A6.49,6.49,0,0,1,153.6,52.44Z"/><path class="cls-3" d="M153.6,60H6.4A6.5,6.5,0,0,1,0,53.43V61a6.5,6.5,0,0,0,6.4,6.58H153.6A6.5,6.5,0,0,0,160,61V53.43A6.5,6.5,0,0,1,153.6,60Z"/><line class="cls-4" x1="15.01" y1="7.58" x2="145.22" y2="7.58"/></g></g></svg>