<svg xmlns="http://www.w3.org/2000/svg" viewBox="0 0 23.02 19.04"><defs><style>.cls-1{fill:#fff;}</style></defs><title>share</title><g id="Capa_2" data-name="Capa 2"><g id="Contenido"><path class="cls-1" d="M1.41,8.29,15.12,2.64c1.36-.59,6-2.47,6-2.47S23.18-.66,23,1.34c-.06.83-.53,3.71-1,6.83l-1.47,9.25s-.12,1.35-1.12,1.58-2.65-.82-2.94-1.05-4.42-2.83-5.94-4.12a1.12,1.12,0,0,1,.05-1.89c2.12-1.94,4.65-4.35,6.18-5.88.71-.71,1.41-2.35-1.53-.35l-8.3,5.58a3.44,3.44,0,0,1-2.7.06C2.47,10.82.41,10.11.41,10.11s-1.41-.88,1-1.82Z"/></g></g></svg>