<svg xmlns="http://www.w3.org/2000/svg" viewBox="0 0 272.13 303.9"><defs><style>.cls-1{fill:#00327a;}</style></defs><title>stars</title><g id="Capa_2" data-name="Capa 2"><g id="Fondo"><path class="cls-1" d="M245.28,123.86l2.61,18.58a3,3,0,0,0,2.47,2.49l19.28,2.95a2.93,2.93,0,0,1,1.28,5.27l-22.48,16.3a3,3,0,0,0-1.16,1.85l-4.42,24.43a2.94,2.94,0,0,1-4.48,2l-16.86-10.89a3,3,0,0,0-2.78-.21L196,196.65a2.94,2.94,0,0,1-3.79-4.05l11-20.91a2.94,2.94,0,0,0-.16-3l-10.66-15.83a2.93,2.93,0,0,1,2-4.54l25.8-3.57a3,3,0,0,0,1.84-1l18.08-21.36A2.93,2.93,0,0,1,245.28,123.86Z"/><path class="cls-1" d="M112.81,6.93l4.82,34.18a8,8,0,0,0,6.74,6.83l35.35,5.41a8,8,0,0,1,3.5,14.46L119.57,99.47a8.05,8.05,0,0,0-3.19,5.08l-8.8,48.58a8,8,0,0,1-12.27,5.32L62.54,137.3a8,8,0,0,0-7.62-.59L12.26,155.63A8,8,0,0,1,1.88,144.55l20.41-38.94a8,8,0,0,0-.45-8.22L1.38,67A8,8,0,0,1,7,54.55l51.33-7.1a8,8,0,0,0,5-2.77L98.71,2.85A8,8,0,0,1,112.81,6.93Z"/><path class="cls-1" d="M134.76,217.59l1.21,8.63a2.94,2.94,0,0,0,2.46,2.49l8.88,1.35a2.93,2.93,0,0,1,1.27,5.28l-11.8,8.56a2.91,2.91,0,0,0-1.16,1.85l-2.45,13.5a2.92,2.92,0,0,1-4.47,1.94l-8.87-5.72a2.92,2.92,0,0,0-2.78-.21L106,260.16a2.93,2.93,0,0,1-3.78-4l5.23-10a2.92,2.92,0,0,0-.17-3l-5.45-8.09a2.94,2.94,0,0,1,2-4.55l14.27-2a2.93,2.93,0,0,0,1.83-1l9.66-11.42A2.94,2.94,0,0,1,134.76,217.59Z"/><path class="cls-1" d="M207.72,281.41l.22,1.53a2.94,2.94,0,0,0,2.46,2.49l1.42.21a2.93,2.93,0,0,1,1.28,5.28l-4.17,3a2.89,2.89,0,0,0-1.16,1.85l-1,5.69a2.93,2.93,0,0,1-4.47,1.94l-3.15-2a3,3,0,0,0-2.78-.21l-2.75,1.22a2.94,2.94,0,0,1-3.79-4l1.14-2.16a2.91,2.91,0,0,0-.17-3L189,290.63a2.94,2.94,0,0,1,2-4.55l6-.83a3,3,0,0,0,1.84-1l3.65-4.31A2.93,2.93,0,0,1,207.72,281.41Z"/></g></g></svg>