<svg xmlns="http://www.w3.org/2000/svg" viewBox="0 0 236.45 19.34"><defs><style>.cls-1{fill:#fff;}.cls-2{fill:#00327a;}</style></defs><title>stars3blue</title><g id="Capa_2" data-name="Capa 2"><g id="Contenido"><path class="cls-1" d="M84.55,2.91l1.66,3.36a.88.88,0,0,0,.67.48l3.71.54a.89.89,0,0,1,.49,1.51l-2.69,2.61a.87.87,0,0,0-.25.78l.63,3.7a.88.88,0,0,1-1.28.93l-3.32-1.75a.91.91,0,0,0-.82,0L80,16.82a.88.88,0,0,1-1.28-.93l.63-3.7a.9.9,0,0,0-.25-.78L76.45,8.8a.89.89,0,0,1,.49-1.51l3.71-.54a.85.85,0,0,0,.66-.48L83,2.91A.88.88,0,0,1,84.55,2.91Z"/><path class="cls-1" d="M119.21.66l2.21,4.48a1.19,1.19,0,0,0,.88.64l5,.72a1.17,1.17,0,0,1,.65,2L124.32,12a1.21,1.21,0,0,0-.34,1l.85,4.93a1.18,1.18,0,0,1-1.71,1.24l-4.42-2.33a1.17,1.17,0,0,0-1.09,0l-4.43,2.33a1.17,1.17,0,0,1-1.7-1.24l.84-4.93a1.16,1.16,0,0,0-.34-1L108.4,8.5a1.17,1.17,0,0,1,.66-2L114,5.78a1.23,1.23,0,0,0,.89-.64L117.1.66A1.17,1.17,0,0,1,119.21.66Z"/><path class="cls-1" d="M153.33,2.91,155,6.27a.88.88,0,0,0,.66.48l3.71.54a.88.88,0,0,1,.49,1.51l-2.68,2.61a.91.91,0,0,0-.26.78l.64,3.7a.88.88,0,0,1-1.28.93L153,15.07a.91.91,0,0,0-.82,0l-3.32,1.75a.88.88,0,0,1-1.28-.93l.64-3.7a.88.88,0,0,0-.26-.78L145.23,8.8a.89.89,0,0,1,.49-1.51l3.71-.54a.88.88,0,0,0,.66-.48l1.66-3.36A.88.88,0,0,1,153.33,2.91Z"/><path class="cls-2" d="M172.22,18.44l2.21-2.31a14.26,14.26,0,0,1,10.33-4.43h40.9l-2.57,2.56A14.23,14.23,0,0,1,213,18.44Z"/><path class="cls-2" d="M183,7.64l2.21-2.31A14.26,14.26,0,0,1,195.56.9h40.89l-2.56,2.56A14.27,14.27,0,0,1,223.8,7.64Z"/><path class="cls-2" d="M64.08,18.44l-2.2-2.31A14.28,14.28,0,0,0,51.54,11.7H10.65l2.56,2.56A14.27,14.27,0,0,0,23.3,18.44Z"/><path class="cls-2" d="M53.43,7.79l-2.2-2.31A14.28,14.28,0,0,0,40.89,1.05H0L2.56,3.61a14.27,14.27,0,0,0,10.1,4.18Z"/></g></g></svg>