<svg xmlns="http://www.w3.org/2000/svg" viewBox="0 0 212.81 17.4"><defs><style>.cls-1{fill:#fff;}.cls-2{fill:#d10b29;}</style></defs><title>stars3</title><g id="Capa_2" data-name="Capa 2"><g id="Contenido"><path class="cls-1" d="M76.1,2.62l1.49,3a.8.8,0,0,0,.6.44l3.34.48A.8.8,0,0,1,82,7.92l-2.42,2.35a.8.8,0,0,0-.23.7l.57,3.33a.79.79,0,0,1-1.15.83l-3-1.57a.81.81,0,0,0-.74,0l-3,1.57a.79.79,0,0,1-1.15-.83L71.45,11a.77.77,0,0,0-.23-.7L68.81,7.92a.8.8,0,0,1,.44-1.36l3.34-.48a.79.79,0,0,0,.59-.44l1.5-3A.79.79,0,0,1,76.1,2.62Z"/><path class="cls-1" d="M107.29.59l2,4a1,1,0,0,0,.79.58l4.45.65a1.05,1.05,0,0,1,.59,1.8l-3.22,3.14a1.07,1.07,0,0,0-.3.94l.76,4.43a1.06,1.06,0,0,1-1.54,1.12l-4-2.09a1,1,0,0,0-1,0l-4,2.09a1.06,1.06,0,0,1-1.53-1.12l.76-4.43a1.07,1.07,0,0,0-.31-.94L97.56,7.65a1.06,1.06,0,0,1,.59-1.8l4.45-.65a1,1,0,0,0,.8-.58l2-4A1.06,1.06,0,0,1,107.29.59Z"/><path class="cls-1" d="M138,2.62l1.49,3a.8.8,0,0,0,.6.44l3.34.48a.8.8,0,0,1,.44,1.36l-2.42,2.35a.8.8,0,0,0-.23.7l.57,3.33a.79.79,0,0,1-1.15.83l-3-1.57a.81.81,0,0,0-.74,0l-3,1.57a.79.79,0,0,1-1.15-.83l.57-3.33a.8.8,0,0,0-.23-.7l-2.41-2.35a.8.8,0,0,1,.44-1.36l3.33-.48a.79.79,0,0,0,.6-.44l1.5-3A.79.79,0,0,1,138,2.62Z"/><path class="cls-2" d="M155,16.6l2-2.09a12.88,12.88,0,0,1,9.31-4h36.8l-2.31,2.3a12.84,12.84,0,0,1-9.08,3.77Z"/><path class="cls-2" d="M164.72,6.88l2-2.09a12.88,12.88,0,0,1,9.31-4h36.8l-2.31,2.3a12.84,12.84,0,0,1-9.08,3.77Z"/><path class="cls-2" d="M57.67,16.6l-2-2.09a12.86,12.86,0,0,0-9.3-4H9.58l2.31,2.3A12.86,12.86,0,0,0,21,16.6Z"/><path class="cls-2" d="M48.09,7l-2-2.08a12.85,12.85,0,0,0-9.31-4H0L2.31,3.25A12.83,12.83,0,0,0,11.39,7Z"/></g></g></svg>