<?xml version="1.0" encoding="utf-8"?>
<!-- Generator: Adobe Illustrator 24.0.1, SVG Export Plug-In . SVG Version: 6.00 Build 0)  -->
<svg version="1.1" id="Capa_1" xmlns="http://www.w3.org/2000/svg" xmlns:xlink="http://www.w3.org/1999/xlink" x="0px" y="0px"
	 viewBox="0 0 272.1 303.9" style="enable-background:new 0 0 272.1 303.9;" xml:space="preserve">
<style type="text/css">
	.st0{fill:#00327A;}
</style>
<title>stars</title>
<g id="Capa_2_1_">
	<g id="Fondo">
		<path class="st0" d="M26.8,180l-2.6-18.6c-0.2-1.3-1.2-2.3-2.5-2.5l-19.3-2.9c-1.6-0.2-2.7-1.7-2.5-3.3c0.1-0.8,0.5-1.5,1.2-1.9
			l22.5-16.3c0.6-0.4,1-1.1,1.2-1.9l4.4-24.4c0.3-1.6,1.8-2.7,3.4-2.4c0.4,0.1,0.8,0.2,1.1,0.4L50.6,117c0.8,0.5,1.9,0.6,2.8,0.2
			l22.7-10c1.5-0.7,3.2,0,3.9,1.5c0.4,0.8,0.3,1.8-0.1,2.5l-11,20.9c-0.5,1-0.4,2.1,0.2,3L79.7,151c0.9,1.3,0.6,3.2-0.8,4.1
			c-0.4,0.2-0.8,0.4-1.2,0.5l-25.8,3.6c-0.7,0.1-1.4,0.5-1.8,1L32,181.4c-1,1.3-2.9,1.4-4.1,0.4C27.3,181.4,26.9,180.7,26.8,180z"/>
		<path class="st0" d="M159.3,296.9l-4.8-34.2c-0.5-3.5-3.2-6.3-6.7-6.8l-35.4-5.4c-4.4-0.6-7.4-4.7-6.8-9c0.3-2.2,1.5-4.2,3.3-5.4
			l43.6-31.7c1.7-1.2,2.8-3,3.2-5.1l8.8-48.6c0.8-4.4,4.9-7.3,9.3-6.5c1.1,0.2,2.1,0.6,3,1.2l32.8,21.2c2.3,1.5,5.1,1.7,7.6,0.6
			l42.7-18.9c4-1.8,8.8-0.1,10.6,3.9c1.1,2.3,1,4.9-0.2,7.2l-20.4,38.9c-1.4,2.6-1.2,5.8,0.5,8.2l20.5,30.4
			c2.5,3.6,1.6,8.6-2.1,11.1c-1.1,0.7-2.3,1.2-3.5,1.3l-51.3,7.1c-2,0.3-3.7,1.3-5,2.8L173.4,301c-2.8,3.4-7.9,3.9-11.3,1.1
			C160.6,300.7,159.6,298.9,159.3,296.9z"/>
		<path class="st0" d="M137.4,86.2l-1.2-8.6c-0.2-1.3-1.2-2.3-2.5-2.5l-8.9-1.4c-1.6-0.2-2.7-1.7-2.5-3.3c0.1-0.8,0.5-1.5,1.2-1.9
			l11.8-8.6c0.6-0.4,1-1.1,1.2-1.9l2.4-13.5c0.3-1.6,1.8-2.6,3.4-2.4c0.4,0.1,0.8,0.2,1.1,0.4l8.9,5.7c0.8,0.5,1.9,0.6,2.8,0.2
			l11.1-4.9c1.5-0.6,3.2,0,3.8,1.5c0.3,0.8,0.3,1.7-0.1,2.5l-5.2,10c-0.5,1-0.4,2.1,0.2,3l5.4,8.1c0.9,1.3,0.6,3.2-0.8,4.1
			c-0.4,0.2-0.8,0.4-1.2,0.5l-14.3,2c-0.7,0.1-1.4,0.5-1.8,1l-9.7,11.4c-1,1.2-2.9,1.4-4.1,0.4C137.8,87.6,137.5,87,137.4,86.2z"/>
		<path class="st0" d="M64.4,22.4l-0.2-1.5c-0.2-1.3-1.2-2.3-2.5-2.5l-1.4-0.2c-1.6-0.2-2.7-1.7-2.5-3.3c0.1-0.8,0.5-1.5,1.2-2
			l4.2-3c0.6-0.4,1-1.1,1.2-1.9l1-5.7c0.3-1.6,1.8-2.6,3.4-2.4c0.4,0.1,0.7,0.2,1.1,0.4l3.1,2c0.8,0.5,1.9,0.6,2.8,0.2l2.8-1.2
			C80,0.8,81.7,1.5,82.4,3c0.3,0.8,0.3,1.7-0.1,2.4l-1.1,2.2c-0.5,1-0.4,2.1,0.2,3l1.8,2.6c0.9,1.3,0.6,3.2-0.8,4.1
			c-0.4,0.2-0.8,0.4-1.2,0.5l-6,0.8c-0.7,0.1-1.4,0.5-1.8,1l-3.6,4.3c-1,1.3-2.8,1.5-4.1,0.5C64.9,23.9,64.5,23.2,64.4,22.4z"/>
	</g>
</g>
</svg>
